<svg width="100%" height="100%" viewBox="0 0 117 99" version="1.1" xmlns="http://www.w3.org/2000/svg" xmlns:xlink="http://www.w3.org/1999/xlink" xml:space="preserve" xmlns:serif="http://www.serif.com/" style="fill-rule:evenodd;clip-rule:evenodd;stroke-linejoin:round;stroke-miterlimit:2;">
    <g id="left" transform="matrix(1,0,0,1,64.3375,24.6516)">
        <path d="M0,2.593C-1.289,3.773 -3.609,5.896 -6.306,8.364C-11.934,2.694 -17.552,-3.223 -23.447,-8.848C-33.725,-18.654 -49.762,-13.896 -52.999,-0.146C-54.412,5.858 -52.785,11.181 -48.551,15.577C-47.051,17.134 -45.04,18.197 -43.333,19.435C-46.437,22.803 -48.566,25.112 -50.644,27.365C-61.328,19.514 -65.555,8.187 -62.515,-3.689C-59.74,-14.531 -50.67,-22.311 -38.606,-23.873C-31.66,-24.772 -24.752,-23.475 -19.696,-18.749C-12.692,-12.199 -6.609,-4.665 0,2.593" style="fill-rule:nonzero;"/>
    </g>
    <g id="right" transform="matrix(1,0,0,1,103.666,-1.27757)">
        <path d="M0,53.489C-2.519,51.051 -4.702,48.937 -8.409,45.348C-6.202,43.921 -3.883,42.979 -2.331,41.32C4.314,34.218 3.917,23.601 -2.999,16.915C-9.969,10.176 -20.326,10.217 -27.403,17.09C-28.847,18.493 -30.03,20.164 -31.429,21.825C-34.232,18.872 -36.401,16.589 -38.746,14.118C-31.308,4.975 -21.978,0 -9.8,2.414C1.576,4.67 8.955,11.649 11.744,22.885C14.88,35.524 9.883,45.342 0,53.489" style="fill-rule:nonzero;"/>
    </g>
    <g id="left-arrow" transform="matrix(1,0,0,1,53.8732,40.3462)">
        <path d="M0,36.207C-3.378,39.564 -5.744,41.915 -7.731,43.891C-16.557,35.065 -25.3,26.321 -33.657,17.964C-25.52,9.824 -16.708,1.01 -8.018,-7.684C-6.16,-5.886 -3.681,-3.484 -0.764,-0.66C-6.954,5.166 -13.299,11.14 -19.698,17.164C-12.836,23.798 -6.576,29.85 0,36.207" style="fill:white;fill-rule:nonzero;stroke:rgb(69,69,69);stroke-width:1px;"/>
    </g>
    <g id="right-arrow" transform="matrix(1,0,0,1,83.8517,57.8943)">
        <path d="M0,0.904C-7.426,-6.227 -13.716,-12.266 -20.061,-18.359C-17.131,-21.088 -14.598,-23.448 -12.342,-25.549C-3.749,-16.952 4.987,-8.214 13.356,0.157C4.991,8.546 -3.727,17.288 -12.866,26.453C-14.478,24.438 -16.62,21.761 -18.75,19.099C-13.205,13.718 -6.971,7.669 0,0.904" style="fill:white;fill-rule:nonzero;stroke:rgb(69,69,69);stroke-width:1px;"/>
    </g>
    <g id="bottom" transform="matrix(1,0,0,1,58.4581,88.3699)">
        <path d="M0,8.444L-8.752,3.672L-8.995,0.421L-0.486,5.3L8.267,0L8.509,3.251L0,8.444Z" style="fill-rule:nonzero;stroke:black;stroke-width:2px;stroke-linejoin:miter;stroke-miterlimit:4;"/>
    </g>
</svg>
