<?xml version="1.0" encoding="UTF-8" standalone="no"?><!DOCTYPE svg PUBLIC "-//W3C//DTD SVG 1.1//EN" "http://www.w3.org/Graphics/SVG/1.1/DTD/svg11.dtd"><svg width="100%" height="100%" viewBox="0 0 88 75" version="1.1" xmlns="http://www.w3.org/2000/svg" xmlns:xlink="http://www.w3.org/1999/xlink" xml:space="preserve" xmlns:serif="http://www.serif.com/" style="fill-rule:evenodd;clip-rule:evenodd;"><path id="left" d="M48.253,20.433c-0.967,0.885 -2.707,2.478 -4.729,4.329c-4.221,-4.253 -8.435,-8.691 -12.856,-12.909c-7.709,-7.355 -19.736,-3.786 -22.164,6.526c-1.06,4.503 0.16,8.495 3.336,11.792c1.125,1.168 2.633,1.965 3.913,2.894c-2.328,2.526 -3.924,4.258 -5.483,5.947c-8.013,-5.888 -11.183,-14.383 -8.903,-23.29c2.081,-8.132 8.884,-13.967 17.932,-15.138c5.209,-0.674 10.39,0.298 14.182,3.843c5.253,4.912 9.815,10.563 14.772,16.006" style="fill:#051a37;fill-rule:nonzero;"/><path id="right" d="M77.75,39.159c-1.89,-1.829 -3.527,-3.414 -6.307,-6.106c1.655,-1.07 3.394,-1.777 4.558,-3.021c4.984,-5.327 4.686,-13.289 -0.501,-18.304c-5.227,-5.054 -12.995,-5.023 -18.303,0.131c-1.083,1.053 -1.97,2.306 -3.019,3.552c-2.102,-2.215 -3.729,-3.927 -5.488,-5.781c5.579,-6.857 12.576,-10.588 21.71,-8.778c8.532,1.692 14.066,6.927 16.158,15.354c2.352,9.479 -1.396,16.842 -8.808,22.953" style="fill:#051a37;fill-rule:nonzero;"/><path id="left-arrow" d="M40.405,57.415c-2.534,2.518 -4.308,4.281 -5.798,5.763c-6.62,-6.62 -13.177,-13.178 -19.445,-19.445c6.103,-6.105 12.712,-12.716 19.229,-19.236c1.394,1.348 3.253,3.15 5.441,5.268c-4.643,4.369 -9.401,8.85 -14.201,13.368c5.147,4.975 9.842,9.514 14.774,14.282" style="fill:#fff;fill-rule:nonzero;"/><path id="right-arrow" d="M62.889,44.099c-5.57,-5.348 -10.287,-9.878 -15.046,-14.447c2.198,-2.047 4.097,-3.817 5.789,-5.393c6.445,6.448 12.997,13.001 19.274,19.28c-6.274,6.291 -12.812,12.848 -19.667,19.722c-1.209,-1.512 -2.815,-3.519 -4.413,-5.516c4.159,-4.036 8.835,-8.572 14.063,-13.646" style="fill:#fff;fill-rule:nonzero;"/><path id="bottom" d="M43.844,72.61l-6.564,-3.579l-0.183,-2.438l6.382,3.659l6.565,-3.975l0.181,2.439l-6.381,3.894Z" style="fill:#051a37;fill-rule:nonzero;stroke:#051a37;stroke-width:1.5px;"/></svg>