<svg id="Layer_1" data-name="Layer 1" xmlns="http://www.w3.org/2000/svg" xmlns:xlink="http://www.w3.org/1999/xlink" viewBox="0 0 151.73 151.73"><defs><style>.cls-1,.cls-2,.cls-4{fill:none;}.cls-2{stroke:#1e120d;stroke-width:2.88px;}.cls-3,.cls-8{stroke:#051a37;}.cls-3{stroke-width:7.16px;fill:url(#Degradado_sin_nombre_4);}.cls-4{stroke:#f2f2f2;stroke-linecap:round;stroke-width:2px;stroke-dasharray:4;}.cls-5{opacity:0.13;fill:url(#_10_lpp_40_);}.cls-6,.cls-8{fill:#051a37;}.cls-7{fill:#fff;}.cls-8{stroke-width:1.56px;}</style><linearGradient id="Degradado_sin_nombre_4" x1="3.58" y1="75.87" x2="148.15" y2="75.87" gradientUnits="userSpaceOnUse"><stop offset="0" stop-color="#00ada7"/><stop offset="1" stop-color="#1b1464"/></linearGradient><pattern id="_10_lpp_40_" data-name="10 lpp 40%" width="72" height="72" patternTransform="translate(57.83 -62.1)" patternUnits="userSpaceOnUse" viewBox="0 0 72 72"><rect class="cls-1" width="72" height="72"/><line class="cls-2" x1="71.75" y1="68.4" x2="144.25" y2="68.4"/><line class="cls-2" x1="71.75" y1="54" x2="144.25" y2="54"/><line class="cls-2" x1="71.75" y1="39.6" x2="144.25" y2="39.6"/><line class="cls-2" x1="71.75" y1="25.2" x2="144.25" y2="25.2"/><line class="cls-2" x1="71.75" y1="10.8" x2="144.25" y2="10.8"/><line class="cls-2" x1="71.75" y1="61.2" x2="144.25" y2="61.2"/><line class="cls-2" x1="71.75" y1="46.8" x2="144.25" y2="46.8"/><line class="cls-2" x1="71.75" y1="32.4" x2="144.25" y2="32.4"/><line class="cls-2" x1="71.75" y1="18" x2="144.25" y2="18"/><line class="cls-2" x1="71.75" y1="3.6" x2="144.25" y2="3.6"/><line class="cls-2" x1="-0.25" y1="68.4" x2="72.25" y2="68.4"/><line class="cls-2" x1="-0.25" y1="54" x2="72.25" y2="54"/><line class="cls-2" x1="-0.25" y1="39.6" x2="72.25" y2="39.6"/><line class="cls-2" x1="-0.25" y1="25.2" x2="72.25" y2="25.2"/><line class="cls-2" x1="-0.25" y1="10.8" x2="72.25" y2="10.8"/><line class="cls-2" x1="-0.25" y1="61.2" x2="72.25" y2="61.2"/><line class="cls-2" x1="-0.25" y1="46.8" x2="72.25" y2="46.8"/><line class="cls-2" x1="-0.25" y1="32.4" x2="72.25" y2="32.4"/><line class="cls-2" x1="-0.25" y1="18" x2="72.25" y2="18"/><line class="cls-2" x1="-0.25" y1="3.6" x2="72.25" y2="3.6"/><line class="cls-2" x1="-72.25" y1="68.4" x2="0.25" y2="68.4"/><line class="cls-2" x1="-72.25" y1="54" x2="0.25" y2="54"/><line class="cls-2" x1="-72.25" y1="39.6" x2="0.25" y2="39.6"/><line class="cls-2" x1="-72.25" y1="25.2" x2="0.25" y2="25.2"/><line class="cls-2" x1="-72.25" y1="10.8" x2="0.25" y2="10.8"/><line class="cls-2" x1="-72.25" y1="61.2" x2="0.25" y2="61.2"/><line class="cls-2" x1="-72.25" y1="46.8" x2="0.25" y2="46.8"/><line class="cls-2" x1="-72.25" y1="32.4" x2="0.25" y2="32.4"/><line class="cls-2" x1="-72.25" y1="18" x2="0.25" y2="18"/><line class="cls-2" x1="-72.25" y1="3.6" x2="0.25" y2="3.6"/></pattern></defs><title>Logo</title><path class="cls-3" d="M148.15,75.86A72.29,72.29,0,1,1,75.86,3.58,72.28,72.28,0,0,1,148.15,75.86Z"/><path class="cls-4" d="M136.41,75.86A60.55,60.55,0,1,1,75.86,15.32,60.55,60.55,0,0,1,136.41,75.86Z"/><path class="cls-5" d="M136.41,75.86A60.55,60.55,0,1,1,75.86,15.32,60.55,60.55,0,0,1,136.41,75.86Z"/><path class="cls-6" d="M80.22,65l-4.91,4.49c-4.38-4.41-8.75-9-13.34-13.39a13.6,13.6,0,0,0-23,6.77,12.65,12.65,0,0,0,3.46,12.23,28.74,28.74,0,0,0,4.06,3l-5.69,6.17c-8.31-6.1-11.6-14.92-9.23-24.16,2.16-8.44,9.21-14.49,18.6-15.7,5.4-.7,10.78.3,14.71,4C70.34,53.47,75.08,59.33,80.22,65Z"/><path class="cls-6" d="M110.82,84.41l-6.54-6.34C106,77,107.8,76.23,109,74.94A13.57,13.57,0,0,0,89.5,56.08a46.61,46.61,0,0,0-3.13,3.69l-5.7-6c5.79-7.11,13-11,22.52-9.11,8.86,1.76,14.6,7.19,16.77,15.93C122.4,70.43,118.51,78.07,110.82,84.41Z"/><path class="cls-7" d="M72.08,103.35l-6,6c-6.87-6.86-13.67-13.67-20.17-20.17l20-20,5.64,5.47L56.75,88.53Z"/><path class="cls-7" d="M95.4,89.53l-15.61-15,6-5.59,20,20q-9.75,9.8-20.4,20.46l-4.58-5.72Z"/><polygon class="cls-8" points="75.64 119.11 68.83 115.4 68.64 112.87 75.27 116.66 82.08 112.54 82.27 115.07 75.64 119.11"/></svg>